<?xml version="1.0" standalone="no"?>
<!DOCTYPE svg PUBLIC "-//W3C//DTD SVG 20010904//EN"
 "http://www.w3.org/TR/2001/REC-SVG-20010904/DTD/svg10.dtd">
<svg version="1.0" xmlns="http://www.w3.org/2000/svg"
 width="1350.000000pt" height="1299.000000pt" viewBox="0 0 1350.000000 1299.000000"
 preserveAspectRatio="xMidYMid meet">
<metadata>
Created by potrace 1.10, written by Peter Selinger 2001-2011
</metadata>
<g transform="translate(0.000000,1299.000000) scale(0.100000,-0.100000)"
fill="#1c1c1e" stroke="none">
<path d="M10070 11908 c-25 -27 -25 -29 4 -86 18 -37 25 -71 31 -157 8 -120
11 -134 28 -111 7 8 26 16 42 18 l30 3 7 -89 c4 -49 14 -121 22 -160 60 -294
78 -407 67 -420 -5 -6 -6 -30 -1 -56 9 -48 1 -66 -25 -56 -11 4 -14 13 -10 25
4 14 -1 20 -20 25 -16 4 -25 13 -25 27 0 20 -25 66 -47 84 -6 6 -14 24 -16 40
-12 85 -4 -108 9 -215 8 -69 21 -184 28 -256 8 -72 18 -140 24 -150 5 -11 10
-130 11 -266 2 -238 2 -249 -18 -274 -35 -44 -41 -38 127 -136 26 -14 70 -47
98 -71 63 -56 233 -266 234 -288 0 -9 7 -19 15 -23 16 -6 21 -36 6 -36 -5 0
-13 -9 -16 -20 -7 -23 -35 -27 -35 -5 0 9 -8 18 -17 22 -10 3 -28 15 -40 26
-21 18 -23 19 -29 3 -4 -10 1 -24 10 -35 9 -10 16 -23 16 -29 0 -17 -20 -15
-27 3 -3 9 -23 25 -44 36 -36 18 -40 18 -46 3 -4 -10 1 -22 11 -30 11 -7 15
-18 10 -25 -5 -9 -10 -9 -18 2 -6 8 -24 21 -41 29 -16 8 -33 16 -36 18 -4 1
-9 -7 -12 -19 -4 -15 0 -27 11 -35 9 -7 13 -16 9 -21 -5 -4 -14 0 -21 10 -7 9
-20 17 -29 17 -9 0 -19 5 -22 10 -11 17 -30 11 -61 -18 -16 -16 -36 -31 -44
-34 -10 -4 -6 -8 13 -13 17 -5 33 -3 42 5 9 7 18 10 21 7 10 -10 -30 -44 -59
-51 -24 -6 -35 -1 -68 29 -21 19 -47 35 -57 35 -10 0 -27 7 -39 15 -13 9 -51
18 -85 22 l-64 5 -2 -106 c-1 -101 -1 -106 19 -106 16 0 20 5 16 20 -3 11 -1
36 4 55 9 31 14 35 42 35 25 0 42 -9 71 -39 34 -35 37 -42 31 -75 -4 -20 -15
-41 -25 -46 -10 -6 -22 -19 -25 -31 -5 -16 -14 -19 -38 -17 -28 3 -32 7 -35
36 -4 43 -22 41 -22 -3 0 -22 -6 -38 -15 -41 -8 -3 -17 -22 -20 -42 -15 -90
-16 -93 -35 -87 -24 8 -29 -10 -40 -134 -5 -57 -12 -106 -14 -108 -7 -8 -30
219 -28 287 0 14 -4 30 -9 37 -6 7 -6 13 0 17 5 3 12 59 15 123 4 65 12 147
18 183 10 59 12 62 20 38 12 -34 18 -34 39 -5 17 24 34 184 21 202 -4 6 -54
10 -114 10 -116 0 -113 3 -60 -57 19 -21 26 -43 34 -120 11 -103 10 -93 4
-273 -2 -71 -9 -151 -14 -177 -6 -29 -8 -359 -5 -823 3 -574 1 -795 -7 -848
-18 -105 -82 -321 -119 -400 -25 -54 -30 -72 -20 -83 17 -21 38 -17 48 9 10
24 41 55 41 41 5 -79 2 -138 -7 -141 -6 -2 -13 6 -16 19 -4 12 -8 20 -11 17
-2 -2 2 -40 10 -84 33 -185 37 -227 38 -375 1 -134 3 -155 17 -158 19 -3 23
26 39 278 15 236 50 574 72 700 6 36 14 101 19 145 4 44 12 125 17 180 21 210
36 646 37 1042 l0 413 45 20 c56 27 75 38 125 74 43 31 105 107 105 128 0 7
23 35 49 61 41 40 53 47 75 41 19 -4 26 -13 26 -30 0 -20 -5 -24 -30 -24 -16
0 -30 -4 -30 -10 0 -5 -12 -16 -27 -24 l-28 -15 36 -1 c20 0 42 6 48 14 8 10
23 13 46 9 27 -4 35 -1 45 17 11 20 13 21 37 5 30 -20 53 -13 53 15 0 24 25
27 38 4 13 -24 47 -13 50 16 2 19 -5 29 -28 42 -34 20 -40 48 -10 48 14 0 31
-16 52 -50 36 -58 61 -64 77 -20 12 37 19 38 31 4 13 -32 31 -27 50 14 16 33
40 43 40 17 0 -9 7 -18 15 -21 8 -4 22 -23 31 -43 8 -20 21 -49 28 -66 7 -16
21 -47 30 -68 9 -21 16 -45 16 -55 0 -9 7 -26 15 -36 8 -11 15 -28 15 -39 0
-10 6 -31 14 -45 15 -30 33 -81 46 -127 5 -16 14 -46 20 -65 7 -19 16 -48 22
-65 5 -16 14 -50 19 -75 5 -24 14 -49 19 -54 6 -6 10 -20 10 -33 0 -12 6 -37
14 -55 21 -51 37 -100 46 -138 4 -19 20 -70 34 -113 14 -43 26 -84 26 -91 0
-8 7 -27 15 -42 8 -16 15 -37 15 -46 0 -10 6 -32 14 -50 13 -32 24 -67 61
-193 10 -33 23 -76 30 -95 7 -19 18 -51 24 -70 7 -19 16 -49 20 -65 4 -17 13
-40 19 -52 7 -12 12 -32 12 -45 0 -13 7 -33 15 -44 8 -10 15 -32 15 -49 0 -16
7 -39 15 -49 8 -11 15 -29 15 -41 0 -12 7 -30 15 -41 8 -10 15 -28 15 -39 0
-11 6 -29 13 -40 7 -11 21 -45 31 -75 19 -61 41 -119 61 -165 7 -16 20 -50 30
-75 9 -25 23 -58 31 -73 8 -16 14 -33 14 -38 0 -13 60 -145 166 -364 52 -108
110 -194 150 -220 24 -15 26 -15 62 14 91 72 162 168 162 217 0 23 -31 54 -70
71 -21 8 -28 22 -39 74 -8 35 -27 93 -42 128 -16 35 -29 72 -29 83 0 10 -11
40 -24 66 -13 26 -27 58 -30 72 -13 47 -67 225 -92 300 -13 41 -24 84 -24 95
0 11 -8 32 -17 45 -10 14 -18 38 -19 55 -3 39 -29 108 -43 113 -11 4 -16 72
-5 72 18 0 44 -23 44 -39 0 -10 7 -24 15 -31 8 -7 15 -23 15 -36 0 -12 5 -26
10 -29 23 -14 9 67 -20 113 -16 27 -30 60 -30 74 0 34 -28 88 -46 88 -10 0
-14 14 -14 56 0 50 -2 55 -19 49 -18 -5 -19 -2 -14 29 4 24 0 44 -11 60 -9 14
-16 32 -16 39 0 8 -7 20 -15 27 -8 7 -15 29 -15 49 0 20 -7 45 -15 55 -8 11
-15 32 -15 47 0 15 -7 40 -15 55 -8 16 -15 39 -15 51 0 12 -4 24 -9 27 -4 3
-11 24 -15 46 -3 23 -10 49 -15 58 -13 25 -41 126 -41 146 0 10 -6 32 -14 49
-8 18 -16 48 -19 67 -2 19 -10 50 -16 68 -29 83 -34 100 -41 137 -4 22 -12 54
-18 70 -6 17 -15 46 -22 65 -7 19 -15 52 -20 72 -4 21 -12 43 -17 50 -6 7 -14
31 -17 52 -9 46 2 57 49 49 18 -3 64 0 103 7 79 13 103 5 126 -42 9 -18 21
-24 60 -26 26 -2 62 2 80 8 17 6 51 15 76 20 46 8 88 22 148 46 36 16 40 35
17 99 -8 22 -15 52 -15 66 0 15 -7 29 -15 33 -10 3 -15 19 -15 45 0 25 -6 43
-15 49 -9 4 -19 28 -23 52 -7 41 -5 47 20 68 26 22 29 22 50 8 30 -21 33 -20
46 9 12 25 13 25 42 10 34 -18 50 -13 50 16 0 22 6 23 40 4 36 -20 40 -19 40
14 0 19 -8 35 -22 45 -12 9 -18 19 -14 23 4 5 18 -4 30 -19 12 -16 27 -28 33
-28 6 0 13 -7 17 -15 8 -23 32 -18 51 11 16 25 17 25 37 7 19 -17 21 -17 43
10 20 26 24 28 45 15 20 -12 24 -11 37 10 18 26 41 28 58 5 14 -19 35 -9 35
18 0 23 32 26 50 4 18 -21 27 -19 34 10 7 29 31 32 57 9 17 -16 19 -15 29 10
5 15 10 31 10 36 0 14 41 -12 82 -52 47 -45 101 -56 172 -32 84 27 130 51 161
84 30 31 30 32 27 132 -2 67 -8 111 -19 132 -53 107 -156 141 -279 94 -71 -27
-158 -105 -148 -132 5 -13 0 -24 -17 -37 -17 -13 -21 -21 -13 -29 7 -7 17 -3
34 15 30 32 43 32 61 -1 13 -25 12 -28 -21 -55 -24 -21 -45 -29 -72 -29 -20 0
-40 -4 -43 -10 -3 -5 -26 -10 -50 -10 -24 0 -46 -4 -49 -9 -3 -5 -20 -11 -38
-14 -18 -3 -55 -11 -83 -17 -27 -6 -67 -14 -88 -17 -20 -3 -40 -9 -43 -14 -3
-5 -20 -9 -39 -9 -19 0 -36 -4 -39 -9 -3 -4 -28 -11 -55 -15 -28 -4 -53 -11
-56 -16 -3 -5 -16 -9 -28 -9 -21 1 -73 -14 -109 -32 -29 -14 -58 -10 -64 9 -4
9 -12 31 -20 49 -8 17 -14 35 -14 41 0 21 -26 32 -45 19 -24 -18 -12 -77 15
-77 28 0 34 -18 16 -45 -22 -33 -22 -143 0 -152 10 -4 13 -14 9 -32 -3 -14 1
-39 10 -55 21 -39 20 -63 0 -46 -19 16 -65 -1 -65 -24 0 -21 17 -29 24 -11 3
8 15 15 26 15 15 0 20 -7 20 -25 0 -18 -4 -23 -15 -19 -19 8 -19 -13 0 -32 21
-21 2 -58 -26 -51 -12 3 -19 0 -19 -9 0 -8 5 -14 10 -14 6 0 10 -7 10 -15 0
-8 -5 -15 -10 -15 -6 0 -13 7 -16 15 -4 8 -12 15 -19 15 -7 0 -15 5 -17 11 -4
13 -45 -6 -65 -31 -10 -13 -13 -13 -25 3 -13 17 -15 17 -27 3 -15 -18 -41 -10
-42 13 0 10 -2 11 -6 4 -6 -15 -33 -17 -33 -3 0 6 -9 30 -21 55 -13 27 -18 52
-14 65 5 16 2 23 -14 27 -25 6 -27 21 -4 38 15 11 15 13 -5 24 -18 10 -20 16
-12 31 8 15 6 20 -10 25 -24 8 -26 31 -4 43 14 8 12 10 -10 16 -19 5 -26 13
-26 31 0 13 -4 27 -10 30 -5 3 -10 17 -10 30 0 13 -5 27 -11 30 -5 4 -9 17 -7
28 1 12 -2 28 -6 36 -6 10 -3 20 12 31 12 10 18 20 15 24 -14 14 -49 4 -67
-20 -15 -21 -16 -32 -9 -63 9 -35 5 -90 -12 -138 -8 -24 -21 -30 -27 -12 -6
17 -56 -1 -61 -22 -3 -10 -13 -19 -22 -19 -12 0 -15 -5 -10 -20 5 -16 2 -20
-14 -20 -12 0 -21 6 -21 14 0 7 -8 24 -18 37 -10 13 -23 58 -30 99 -9 59 -16
79 -35 95 -14 11 -28 30 -32 43 -3 12 -10 22 -15 22 -5 0 -14 16 -20 35 -6 19
-20 41 -30 48 -10 7 -20 23 -22 35 -4 31 -22 29 -26 -3 -2 -16 2 -27 12 -31 9
-3 16 -14 16 -24 0 -9 14 -36 30 -58 17 -23 30 -45 30 -48 0 -3 6 -20 13 -37
29 -69 56 -166 67 -236 6 -41 13 -78 16 -83 3 -5 0 -16 -7 -24 -11 -13 -17 -7
-41 41 -15 31 -28 72 -28 90 0 18 -6 46 -14 62 -14 27 -96 281 -96 297 0 4 -7
14 -15 22 -8 9 -15 31 -15 50 0 19 -4 34 -9 34 -5 0 -12 15 -16 33 -7 33 -30
106 -46 142 -8 18 -38 106 -91 260 -11 33 -32 96 -48 140 -48 138 -62 195 -58
228 5 50 -27 79 -90 82 -85 4 -166 72 -182 153 -4 20 -13 60 -19 87 -7 28 -17
70 -23 95 -6 25 -14 65 -17 90 -4 25 -10 51 -15 58 -4 7 -12 37 -17 65 -16 97
-37 202 -49 242 -30 104 -39 142 -43 170 -5 31 -20 77 -42 130 -7 17 -21 52
-32 78 -18 50 -54 97 -72 97 -6 0 -19 -10 -31 -22z m385 -1288 c8 0 24 -9 35
-20 14 -14 33 -20 65 -20 43 0 44 -1 55 -40 6 -21 15 -42 20 -45 6 -3 10 -16
10 -28 1 -12 9 -40 20 -62 11 -22 19 -48 20 -58 0 -9 4 -25 9 -35 5 -9 19 -51
32 -92 13 -41 27 -79 31 -84 4 -6 8 -19 8 -29 0 -10 9 -31 21 -45 15 -20 19
-34 14 -62 -5 -32 -3 -39 19 -54 17 -11 26 -26 26 -44 0 -15 7 -36 15 -46 8
-11 15 -27 15 -35 0 -8 29 -83 64 -166 76 -177 126 -306 126 -321 0 -6 9 -21
20 -34 11 -13 20 -34 20 -47 0 -12 4 -23 9 -23 5 0 14 -20 20 -44 6 -25 15
-48 21 -51 5 -3 10 -19 10 -36 0 -16 5 -29 10 -29 6 0 10 7 10 15 0 8 7 15 15
15 20 0 19 -37 -1 -48 -15 -9 -14 -18 11 -108 28 -100 162 -511 215 -659 16
-44 56 -165 88 -270 80 -255 92 -295 92 -310 0 -8 6 -26 14 -42 8 -15 22 -55
31 -88 9 -33 23 -73 31 -88 8 -16 14 -35 14 -43 0 -17 27 -108 41 -139 5 -11
25 -72 44 -135 19 -63 42 -135 50 -160 22 -67 85 -309 85 -326 0 -8 10 -28 22
-45 20 -26 21 -33 10 -63 -9 -24 -10 -41 -2 -57 5 -13 17 -55 26 -94 8 -38 18
-80 21 -92 3 -13 2 -43 -1 -68 -7 -43 -9 -45 -41 -45 -19 0 -37 -5 -40 -10 -9
-15 -25 -2 -25 21 0 11 -6 22 -14 25 -36 14 -58 136 -34 189 10 22 8 28 -10
48 -12 13 -22 30 -22 38 0 8 -6 21 -12 27 -10 10 -10 17 0 33 8 12 12 22 10
22 -41 20 -43 25 -42 91 0 41 -4 66 -10 66 -27 1 -34 16 -26 58 6 34 4 45 -7
49 -10 4 -12 14 -8 34 8 35 -10 69 -35 69 -21 0 -27 15 -10 25 6 3 10 13 10
21 0 17 -37 19 -42 2 -6 -17 -28 0 -28 23 0 14 7 19 26 19 25 0 26 2 21 36 -9
54 -47 90 -47 44 0 -11 -7 -20 -15 -20 -21 0 -19 22 5 43 28 23 25 37 -10 50
-35 13 -47 37 -26 53 21 15 22 15 -24 63 -27 28 -40 51 -40 69 0 15 -9 45 -20
67 -11 22 -20 43 -20 47 0 5 -11 25 -24 46 -13 20 -27 55 -31 77 -3 22 -14 51
-23 65 -9 14 -20 50 -24 80 -17 132 -24 155 -51 182 -20 20 -27 37 -27 65 0
21 -3 49 -7 63 -6 24 -5 24 13 9 10 -9 27 -19 37 -22 9 -4 17 -15 17 -26 0
-19 23 -35 34 -24 11 12 6 51 -9 63 -8 7 -15 27 -15 45 0 18 -7 38 -15 45 -11
9 -14 23 -9 46 5 25 1 36 -15 50 -14 12 -19 25 -15 41 4 14 -2 35 -15 56 -12
19 -21 42 -21 51 0 30 -32 115 -48 128 -13 11 -14 10 -9 -14 4 -15 3 -30 -3
-33 -5 -3 -10 -25 -10 -48 l-1 -42 -19 24 c-11 13 -20 36 -20 52 0 16 -13 54
-30 84 -35 64 -36 73 -13 71 28 -2 26 29 -2 44 -32 17 -57 62 -49 85 4 9 -1
24 -10 34 -9 10 -23 42 -32 72 -9 30 -22 61 -30 70 -8 8 -14 23 -14 31 0 9
-10 28 -22 43 -65 78 -123 140 -132 144 -18 7 -76 72 -76 85 0 7 5 39 11 71
10 53 9 60 -9 74 -10 9 -32 44 -48 79 -15 35 -37 68 -47 74 -10 5 -25 25 -33
44 -8 19 -20 34 -28 34 -8 0 -21 11 -30 25 -9 14 -23 25 -30 25 -8 0 -21 11
-29 24 -9 12 -31 31 -51 40 -19 9 -38 21 -41 25 -3 5 -20 13 -37 17 -18 3 -49
22 -68 41 l-36 34 3 211 c2 116 8 219 14 229 5 10 6 43 3 73 -5 39 -3 60 6 71
10 12 10 18 0 30 -9 10 -11 32 -7 67 4 32 2 57 -5 65 -8 10 -8 20 1 39 6 15 9
34 6 44 -4 12 2 24 16 33 20 15 24 12 85 -49 35 -35 71 -64 79 -64z m2609
-734 c40 -37 43 -53 21 -95 -17 -34 -45 -43 -85 -28 -24 9 -32 8 -48 -7 -19
-16 -21 -16 -41 12 -12 17 -21 36 -21 44 0 17 38 79 59 95 31 24 77 15 115
-21z m-15 -225 c12 -16 21 -36 21 -44 0 -22 -18 -31 -34 -18 -10 9 -15 7 -18
-7 -6 -23 -87 -40 -98 -21 -4 6 -18 16 -31 23 -23 11 -48 60 -37 71 3 4 38 8
78 10 40 2 75 6 78 9 11 11 21 6 41 -23z m-919 -187 c0 -14 -3 -14 -15 -4 -8
7 -15 14 -15 16 0 2 7 4 15 4 8 0 15 -7 15 -16z m-619 -229 c4 -21 12 -41 18
-43 13 -4 15 -51 2 -70 -10 -16 -156 -32 -187 -21 -14 5 -26 2 -37 -8 -18 -18
-37 -10 -37 16 0 10 -7 35 -16 56 -8 21 -13 48 -10 60 5 20 14 23 87 29 45 4
89 11 98 16 9 6 29 9 46 7 26 -2 30 -7 36 -42z m-1141 -65 c0 -5 9 -10 20 -10
11 0 20 5 20 10 0 6 7 10 15 10 8 0 15 -4 15 -8 0 -12 -56 -42 -79 -42 -12 0
-21 -4 -21 -10 0 -5 -7 -10 -15 -10 -23 0 -18 36 8 53 26 19 37 21 37 7z m398
-15 c10 -10 -22 -35 -44 -35 -27 0 -38 14 -30 37 5 11 14 14 38 9 17 -3 34 -8
36 -11z m-118 -12 c29 -25 25 -43 -10 -43 -25 0 -30 4 -30 23 0 21 7 37 17 37
1 0 12 -8 23 -17z m-165 -53 c4 -6 4 -17 1 -25 -4 -11 -10 -11 -30 -2 -14 7
-26 18 -26 25 0 15 46 16 55 2z m-77 -38 c3 -9 -3 -13 -19 -10 -12 1 -24 9
-27 16 -3 9 3 13 19 10 12 -1 24 -9 27 -16z m1158 -13 c12 -20 -10 -27 -65
-22 l-54 6 34 12 c44 16 76 18 85 4z m-226 -19 c23 -23 21 -24 -14 -10 -14 5
-26 14 -26 20 0 16 18 12 40 -10z m-100 -26 c0 -8 6 -14 14 -14 20 0 29 -16
21 -40 -9 -27 -23 -25 -31 5 -3 13 -12 29 -19 35 -8 6 -11 18 -8 26 6 17 23 9
23 -12z m106 -257 c3 -12 12 -35 19 -52 23 -55 44 -119 51 -158 3 -20 10 -40
15 -43 5 -3 9 -20 8 -37 0 -18 -3 -25 -6 -17 -3 8 -11 29 -18 45 -8 17 -16 41
-20 55 -3 14 -12 39 -20 55 -7 17 -21 50 -30 75 -9 25 -21 53 -26 62 -5 10 -9
27 -9 39 0 18 3 19 15 9 8 -6 17 -22 21 -33z m-1498 -337 c0 -40 -1 -42 -8
-15 -4 17 -8 48 -8 70 0 34 1 36 8 15 4 -14 8 -45 8 -70z m1389 -60 c-1 -22
-4 -40 -8 -40 -16 0 -26 69 -13 83 14 14 23 -5 21 -43z m243 -12 c0 -5 -4 -8
-10 -8 -5 0 -10 10 -10 23 0 18 2 19 10 7 5 -8 10 -18 10 -22z m-234 -94 c-3
-9 -6 -20 -6 -25 0 -5 -4 -9 -10 -9 -5 0 -10 11 -10 25 0 16 6 25 16 25 11 0
14 -5 10 -16z m32 -81 c-2 -10 -10 -18 -18 -18 -8 0 -16 8 -18 18 -2 12 3 17
18 17 15 0 20 -5 18 -17z m496 -708 c5 -22 15 -46 23 -54 9 -9 11 -17 5 -23
-15 -15 -32 0 -32 28 0 13 -9 29 -20 36 -25 16 -28 61 -3 56 11 -2 21 -18 27
-43z m-84 -610 c0 -8 -4 -15 -10 -15 -5 0 -10 7 -10 15 0 8 5 15 10 15 6 0 10
-7 10 -15z m438 -709 c4 -52 -27 -86 -79 -86 -21 0 -40 3 -42 8 -8 13 5 82 15
82 5 0 22 9 36 20 40 32 66 23 70 -24z"/>
<path d="M11120 8810 c0 -11 5 -20 10 -20 6 0 10 9 10 20 0 11 -4 20 -10 20
-5 0 -10 -9 -10 -20z"/>
<path d="M11150 8731 c0 -12 5 -21 10 -21 6 0 10 6 10 14 0 8 -4 18 -10 21 -5
3 -10 -3 -10 -14z"/>
<path d="M11160 8642 c0 -5 6 -17 14 -28 19 -25 31 -12 14 15 -13 21 -28 28
-28 13z"/>
<path d="M9978 11894 c-6 -5 -172 -66 -235 -85 -18 -5 -35 -14 -38 -19 -4 -6
-16 -10 -28 -10 -12 0 -31 -7 -41 -15 -11 -8 -32 -15 -47 -15 -14 0 -32 -7
-39 -15 -7 -8 -25 -15 -41 -15 -15 0 -34 -7 -43 -15 -8 -8 -30 -15 -49 -15
-19 0 -40 -7 -47 -15 -7 -8 -23 -15 -36 -15 -12 0 -26 -4 -29 -10 -3 -5 -38
-19 -78 -31 -40 -12 -88 -30 -107 -41 -19 -10 -42 -18 -50 -18 -15 0 -87 -23
-125 -39 -36 -16 -109 -39 -142 -46 -18 -4 -35 -11 -38 -16 -4 -5 -16 -9 -28
-9 -12 0 -34 -6 -49 -14 -15 -8 -42 -17 -60 -21 -46 -10 -131 -37 -143 -45 -5
-4 -29 -11 -52 -15 -24 -4 -45 -11 -48 -15 -3 -5 -26 -12 -50 -16 -25 -3 -48
-10 -51 -15 -3 -5 -14 -9 -25 -9 -10 0 -45 -8 -76 -19 -32 -10 -85 -26 -118
-35 -33 -9 -82 -23 -110 -30 -111 -31 -142 -39 -195 -47 -30 -5 -95 -15 -145
-23 -308 -50 -451 -60 -895 -60 -477 -1 -670 3 -790 14 -47 5 -204 11 -350 15
-146 3 -314 10 -375 15 -60 5 -213 12 -340 15 -126 3 -259 8 -295 11 -83 7
-818 33 -1245 45 -348 9 -710 3 -760 -12 -16 -4 -77 -13 -135 -19 -146 -14
-223 -26 -246 -38 -10 -5 -39 -13 -64 -17 -25 -3 -58 -11 -75 -16 -112 -34
-254 -81 -275 -90 -14 -6 -38 -17 -55 -23 -60 -25 -250 -121 -263 -133 -7 -7
-17 -13 -22 -13 -10 0 -156 -98 -215 -144 -22 -18 -53 -40 -69 -50 -35 -22
-75 -66 -76 -83 0 -15 73 -73 93 -73 8 0 28 -7 43 -15 37 -19 139 -19 213 -1
31 8 81 14 111 12 30 -2 80 -4 109 -5 85 -2 49 -18 -64 -30 -82 -8 -57 -9 145
-5 410 8 575 15 584 24 11 11 -16 17 -109 25 -38 4 -95 13 -127 21 -31 8 -63
11 -71 8 -8 -3 -39 2 -68 11 -30 9 -85 19 -124 21 -38 2 -113 6 -165 9 -52 4
-102 6 -110 6 -44 -2 -147 -12 -157 -16 -7 -2 -43 5 -80 16 -108 33 -100 29
-82 42 9 7 14 17 12 24 -2 6 6 17 19 24 13 6 27 18 31 25 4 8 18 14 30 14 12
0 38 16 57 36 26 26 41 34 58 29 17 -4 38 6 82 41 43 34 64 44 79 39 25 -8 42
22 20 35 -7 5 -10 12 -6 16 3 4 13 1 21 -5 16 -13 43 -4 77 26 9 7 39 21 67
31 27 10 57 24 66 31 8 7 24 10 34 7 12 -4 29 2 46 15 23 18 31 20 53 10 32
-14 64 -5 61 17 -2 14 5 17 42 17 25 0 63 8 85 18 22 10 49 16 59 13 11 -3 29
0 40 7 12 6 46 14 76 18 30 4 107 17 170 29 95 18 157 22 362 24 136 1 250 5
254 9 12 12 59 8 96 -7 24 -10 61 -13 131 -10 53 2 100 5 104 6 5 1 24 -2 43
-5 19 -4 150 -9 290 -12 338 -8 414 -11 447 -21 15 -4 127 -9 248 -11 255 -3
375 -8 535 -19 63 -5 168 -7 233 -6 79 3 123 0 132 -8 8 -6 42 -11 77 -10 35
1 80 -3 102 -8 26 -7 44 -7 55 0 11 6 56 6 136 0 66 -5 183 -13 260 -16 77 -4
144 -11 149 -16 12 -12 79 -13 91 -1 6 4 37 5 70 1 35 -4 69 -3 83 3 15 7 29
7 45 0 14 -7 30 -7 39 -2 10 6 31 3 58 -6 28 -10 48 -12 59 -5 21 11 83 13
257 10 93 -1 138 2 155 11 21 12 56 14 267 18 18 0 38 4 45 8 7 4 28 8 47 8
102 3 206 19 216 33 6 9 18 13 28 9 18 -7 219 20 251 33 11 5 57 18 102 29 45
11 90 24 100 29 10 6 47 17 82 26 48 12 67 13 77 5 13 -10 18 -6 16 12 -2 10
82 29 130 29 47 0 61 7 70 31 6 16 22 20 135 35 23 3 47 12 54 20 6 8 20 14
30 14 11 0 27 4 37 9 26 13 83 32 122 41 19 4 80 24 135 44 55 20 108 36 117
36 9 0 29 5 45 12 15 6 33 10 39 9 6 0 17 5 23 13 11 13 31 20 166 58 39 11
51 19 53 36 4 23 17 29 27 12 11 -18 46 -11 77 15 16 14 37 25 46 25 9 0 26 7
36 15 11 8 30 15 43 15 13 0 26 7 29 15 4 9 18 14 39 13 19 -1 41 5 50 12 10
8 29 10 54 6 41 -6 66 9 40 24 -8 6 -1 11 24 15 20 4 41 13 48 21 6 8 19 14
29 14 24 0 110 39 110 49 0 16 -50 28 -62 15z"/>
<path d="M10002 11618 c-7 -7 -12 -21 -12 -32 0 -12 -16 -36 -35 -54 -24 -24
-35 -44 -37 -70 -2 -30 -7 -38 -26 -40 -29 -4 -24 -25 6 -27 23 -2 51 -30 52
-52 0 -7 -10 -13 -23 -13 -35 0 -39 -11 -14 -34 44 -41 113 -14 77 29 -9 10
-7 23 8 52 14 26 22 70 27 139 7 100 1 126 -23 102z"/>
<path d="M9412 11305 c2 -14 8 -26 13 -26 6 0 11 12 13 26 2 18 -1 25 -13 25
-12 0 -15 -7 -13 -25z"/>
<path d="M9235 11237 c-4 -10 -3 -23 4 -30 16 -16 26 0 14 25 -10 21 -11 22
-18 5z"/>
<path d="M9958 11219 c-26 -15 -22 -32 12 -58 26 -19 31 -20 36 -6 4 8 1 22
-6 30 -7 8 -10 22 -6 30 6 17 -11 19 -36 4z"/>
<path d="M10110 11166 c0 -19 5 -38 10 -41 6 -4 10 8 10 29 0 19 -4 38 -10 41
-6 4 -10 -8 -10 -29z"/>
<path d="M9007 11174 c-4 -4 -4 -10 -1 -15 6 -10 34 0 34 12 0 10 -24 12 -33
3z"/>
<path d="M8810 11085 c-10 -13 -9 -15 9 -15 11 0 21 4 21 9 0 18 -18 21 -30 6z"/>
<path d="M2564 11059 c-10 -17 13 -36 27 -22 12 12 4 33 -11 33 -5 0 -12 -5
-16 -11z"/>
<path d="M9980 10904 c0 -9 7 -22 16 -29 15 -11 15 -14 0 -37 -16 -24 -16 -27
0 -42 14 -14 15 -22 5 -42 -13 -30 -14 -64 -1 -64 14 0 51 -91 45 -111 -7 -20
26 -83 40 -78 11 5 10 28 -5 114 -5 33 -12 82 -15 109 -3 27 -12 58 -20 69
-11 15 -12 24 -3 34 8 10 6 23 -8 53 -19 40 -54 55 -54 24z"/>
<path d="M6862 10868 c3 -7 17 -14 32 -16 20 -3 27 0 24 10 -3 7 -17 14 -32
16 -20 3 -27 0 -24 -10z"/>
<path d="M2330 10448 c-25 -3 -79 -7 -121 -7 -141 -2 -290 -14 -281 -23 13
-13 689 -31 1802 -48 723 -11 1657 -34 2055 -50 458 -18 957 -32 1510 -41 292
-4 589 -11 660 -14 376 -15 593 -29 629 -41 21 -8 52 -14 68 -14 17 0 53 -7
82 -16 28 -9 74 -23 101 -31 111 -33 234 -95 287 -145 10 -10 22 -18 27 -18 4
0 17 -12 27 -27 10 -15 36 -43 57 -63 41 -40 41 -48 -3 -115 -11 -16 -23 -37
-26 -45 -21 -52 -34 -93 -34 -107 0 -9 -8 -21 -17 -28 -12 -9 -17 -30 -18 -81
-1 -38 -8 -95 -15 -127 -12 -58 -8 -93 10 -82 5 3 10 20 10 36 0 17 9 47 20
67 11 20 32 62 46 92 35 76 70 140 83 153 6 6 11 29 11 50 0 35 2 39 21 34 15
-4 19 -2 15 8 -8 23 27 93 56 110 26 15 32 15 90 -2 35 -10 91 -18 125 -18 50
0 63 -3 63 -15 -2 -72 -30 -290 -39 -307 -23 -44 -14 -52 30 -30 40 20 41 21
35 61 -7 43 16 254 32 296 23 62 23 80 2 80 -11 0 -20 -4 -20 -9 0 -17 -44
-20 -99 -5 -73 19 -155 18 -171 -1 -7 -8 -27 -15 -46 -15 -18 0 -36 -4 -39
-10 -3 -5 -17 -10 -31 -10 -23 0 -24 2 -18 43 4 23 13 46 20 50 21 12 16 29
-6 22 -15 -5 -32 6 -71 45 -55 55 -115 97 -139 97 -8 0 -44 17 -78 37 -35 20
-74 36 -86 36 -12 0 -31 7 -42 15 -12 8 -46 19 -75 24 -30 6 -88 18 -129 26
-212 45 -405 54 -1170 56 -355 0 -811 5 -1015 10 -664 15 -1096 28 -1295 39
-107 5 -287 10 -400 10 -113 0 -268 4 -345 9 -77 6 -401 13 -720 16 -319 4
-686 12 -815 18 -265 13 -543 15 -610 5z"/>
<path d="M10157 10183 c-4 -3 -7 -23 -7 -43 0 -20 -5 -41 -12 -48 -9 -9 -9
-21 0 -50 20 -66 15 -106 -20 -160 -63 -96 -56 -89 -68 -69 -14 23 -30 22 -30
-2 0 -23 -67 -101 -87 -101 -18 0 -17 19 2 26 9 4 15 19 15 40 0 38 18 83 42
104 30 27 27 86 -5 101 -16 7 -26 24 -33 52 -12 53 -28 57 -49 13 -16 -34 -35
-48 -35 -26 0 18 -25 10 -58 -20 -18 -16 -38 -30 -45 -33 -8 -2 -8 -14 2 -44
9 -28 11 -65 7 -124 -10 -122 -9 -158 3 -173 6 -7 8 -27 5 -45 -8 -38 4 -40
43 -8 26 22 82 43 93 35 11 -8 -3 -55 -22 -70 -23 -21 -25 -20 45 -23 28 -1
66 4 83 11 34 15 94 71 94 88 0 6 8 25 17 41 13 22 17 56 18 135 1 61 6 114
13 127 7 13 12 65 12 135 0 106 -7 147 -23 131z m-224 -213 c21 -16 26 -29 25
-58 -1 -20 -7 -42 -15 -47 -7 -6 -18 -35 -24 -65 -5 -30 -13 -68 -16 -85 -7
-35 -18 -45 -55 -45 -44 0 -67 63 -27 75 14 5 18 12 14 23 -25 61 -10 157 32
205 21 22 34 22 66 -3z m133 -202 c4 -6 0 -16 -8 -22 -8 -6 -18 -21 -22 -33
-9 -28 -35 -38 -43 -16 -4 10 1 22 13 32 11 9 23 24 27 34 7 20 23 22 33 5z"/>
<path d="M9771 10135 c-14 -8 -37 -25 -52 -39 -32 -30 -35 -31 -55 -11 -21 21
-35 19 -41 -5 -3 -13 -14 -20 -28 -20 -12 0 -28 -7 -35 -15 -22 -27 4 -40 78
-40 56 1 73 5 106 28 22 15 50 43 63 62 34 51 17 69 -36 40z"/>
<path d="M1348 10035 c-2 -3 -69 -5 -149 -6 -79 0 -176 -5 -215 -10 -39 -4
-113 -9 -165 -10 -52 -1 -119 -6 -149 -11 -30 -5 -84 -13 -120 -17 -64 -8
-205 -65 -242 -98 -29 -26 -24 -95 10 -129 75 -77 299 -254 320 -254 6 0 12
-4 14 -8 4 -10 104 -70 168 -101 25 -12 52 -26 60 -31 38 -23 152 -70 168 -70
10 0 27 -7 38 -15 10 -8 30 -15 44 -15 14 0 36 -7 50 -15 14 -8 36 -15 50 -15
14 0 34 -7 44 -15 11 -8 37 -15 59 -15 21 0 47 -5 58 -11 11 -6 55 -14 97 -19
42 -5 106 -14 142 -19 36 -6 144 -11 240 -11 96 0 398 -7 670 -15 272 -8 644
-15 825 -15 182 0 425 -5 540 -10 116 -6 453 -14 750 -19 714 -13 1229 -40
1439 -77 43 -8 95 -14 117 -14 21 0 64 -7 96 -15 31 -8 75 -15 96 -15 21 0 47
-4 57 -10 10 -5 47 -14 82 -20 121 -20 261 -51 323 -72 17 -5 46 -14 65 -18
19 -4 49 -13 65 -19 69 -25 182 -63 210 -70 17 -4 39 -13 50 -18 11 -6 36 -18
55 -26 72 -32 246 -118 275 -137 17 -11 37 -23 45 -27 70 -32 325 -256 431
-379 35 -40 149 -192 149 -198 0 -2 17 -31 39 -63 21 -32 50 -80 65 -108 15
-27 31 -57 36 -65 10 -17 95 -198 115 -245 22 -52 42 -108 60 -170 9 -33 22
-76 28 -95 6 -19 14 -53 18 -75 14 -71 31 -149 45 -212 8 -34 14 -79 14 -100
0 -21 6 -76 14 -123 21 -120 36 -269 46 -455 5 -88 13 -191 19 -230 5 -38 11
-142 12 -229 2 -159 2 -160 -22 -168 -13 -5 -31 -16 -41 -25 -24 -22 -58 -89
-58 -116 0 -12 -7 -44 -16 -72 -14 -46 -14 -59 1 -155 23 -145 44 -182 110
-192 20 -3 20 -11 21 -608 1 -333 -2 -652 -7 -710 -5 -58 -13 -298 -19 -535
-6 -236 -15 -497 -19 -580 -5 -82 -9 -229 -10 -325 -1 -96 -6 -218 -12 -270
-5 -52 -14 -149 -19 -215 -8 -114 -14 -150 -40 -255 -6 -25 -15 -62 -19 -83
-5 -21 -14 -44 -20 -50 -6 -6 -11 -21 -11 -33 0 -30 -112 -142 -173 -172 -26
-13 -49 -27 -52 -33 -4 -5 -14 -9 -24 -9 -10 0 -24 -7 -31 -15 -7 -8 -20 -15
-29 -15 -9 0 -29 -7 -45 -15 -15 -8 -35 -15 -43 -15 -8 0 -29 -6 -46 -13 -34
-15 -106 -37 -202 -62 -33 -9 -80 -22 -105 -29 -25 -8 -79 -21 -120 -31 -41
-10 -97 -23 -125 -30 -79 -21 -180 -35 -312 -45 -67 -5 -131 -14 -142 -19 -11
-6 -28 -11 -39 -11 -11 0 -38 -16 -61 -36 -48 -42 -53 -74 -21 -139 30 -63 55
-87 83 -80 17 5 28 2 34 -9 5 -9 25 -16 53 -17 67 -3 272 11 295 21 11 4 58
13 105 20 98 14 325 71 361 90 13 8 48 17 77 21 30 4 61 14 70 22 10 7 39 22
66 32 27 10 57 26 67 36 11 11 26 19 34 19 38 0 265 195 265 228 0 15 -26 16
-36 1 -4 -6 -19 -9 -36 -5 -31 6 -63 -10 -118 -60 -14 -12 -43 -32 -65 -44
-22 -11 -47 -25 -55 -30 -39 -24 -144 -70 -159 -70 -9 0 -25 -6 -36 -13 -11
-7 -49 -21 -85 -31 -36 -10 -85 -24 -110 -31 -25 -8 -67 -19 -95 -25 -27 -6
-79 -17 -115 -26 -205 -47 -409 -82 -450 -77 -28 4 -41 14 -64 49 -27 42 -27
46 -11 63 11 13 13 21 6 26 -23 13 -11 27 19 22 16 -4 32 -3 34 2 5 8 101 25
201 36 28 3 64 7 80 9 17 3 62 9 100 14 89 13 265 48 331 67 28 8 59 15 70 15
10 0 32 7 48 15 15 8 39 15 52 15 13 0 53 11 90 25 36 14 75 25 85 25 10 0 70
27 134 60 64 33 126 60 138 60 25 0 38 8 52 31 6 9 27 38 47 65 21 27 43 65
49 84 7 19 23 50 37 67 17 23 27 53 32 100 4 38 13 88 19 113 13 55 32 187 37
255 4 55 8 148 18 413 4 95 11 184 16 197 5 14 5 36 0 54 -4 16 -6 105 -3 198
3 92 6 220 8 283 1 63 5 234 8 380 6 251 18 1134 20 1415 0 132 -18 342 -33
381 -5 12 -4 70 1 130 4 60 7 135 5 166 -2 39 3 68 15 93 23 46 28 239 15 510
-6 105 -11 217 -12 250 -1 33 -7 114 -14 180 -7 66 -13 152 -13 191 -1 43 -7
77 -16 87 -7 10 -15 43 -16 75 -2 31 -8 71 -15 87 -7 17 -14 47 -14 68 -1 21
-7 41 -12 45 -6 4 -12 29 -13 56 -1 27 -5 54 -10 60 -5 6 -11 36 -15 65 -4 30
-13 66 -20 80 -8 15 -21 51 -31 81 -9 30 -30 82 -45 115 -16 33 -43 95 -61
138 -18 43 -39 83 -46 89 -7 6 -13 17 -13 25 0 8 -11 29 -25 47 -14 18 -25 40
-25 48 0 9 -11 23 -25 32 -14 9 -25 22 -25 29 0 22 -73 131 -137 205 -35 40
-63 77 -63 83 0 5 -11 14 -24 19 -15 5 -27 20 -31 38 -5 23 -10 29 -26 25 -14
-4 -19 0 -19 14 0 11 -11 25 -25 31 -14 7 -28 19 -31 27 -4 8 -12 15 -20 15
-8 0 -14 4 -14 8 0 5 -11 14 -25 20 -14 6 -25 19 -25 28 0 10 -6 14 -14 11 -7
-3 -23 7 -35 24 -12 16 -26 29 -32 29 -6 0 -30 15 -52 33 -46 36 -59 44 -134
81 -29 15 -53 31 -53 36 0 6 -11 10 -24 10 -13 0 -29 7 -36 15 -7 8 -20 15
-30 15 -10 0 -23 7 -30 15 -7 8 -21 15 -33 15 -11 0 -64 20 -119 45 -55 25
-108 45 -119 45 -11 0 -27 4 -37 9 -62 30 -333 111 -375 111 -15 0 -54 9 -85
19 -32 11 -94 23 -137 26 -44 4 -100 13 -125 20 -45 13 -183 33 -230 32 -14 0
-47 5 -75 11 -75 16 -251 34 -330 33 -38 0 -86 4 -105 9 -57 15 -443 30 -913
35 -242 3 -442 7 -446 9 -4 3 -193 7 -421 10 -228 3 -536 8 -685 11 -148 3
-378 8 -510 10 -644 10 -931 18 -946 26 -9 5 -68 11 -130 15 -66 4 -139 14
-173 25 -32 10 -81 21 -110 25 -28 3 -70 17 -93 30 -29 17 -50 23 -68 18 -15
-4 -34 0 -48 9 -12 8 -37 18 -56 22 -52 11 -226 89 -237 106 -3 5 -11 9 -19 9
-8 0 -31 11 -51 25 -20 14 -45 25 -55 25 -10 0 -23 9 -29 20 -6 11 -17 20 -25
20 -7 0 -48 18 -89 41 -84 45 -101 73 -39 64 21 -3 67 -10 103 -15 36 -6 117
-14 180 -20 63 -6 137 -15 163 -20 26 -6 107 -10 180 -10 73 0 177 -7 232 -15
104 -15 243 -19 283 -9 32 9 22 28 -18 32 -20 2 -29 7 -22 11 7 4 38 4 68 0
54 -7 739 -15 819 -9 106 8 -103 18 -395 19 -173 1 -335 6 -359 12 -24 5 -192
14 -375 19 -446 12 -746 39 -851 76 -23 8 -47 14 -54 14 -27 0 -111 73 -111
96 0 24 34 35 125 38 29 0 60 8 75 19 13 9 36 17 50 17 14 0 38 7 54 15 36 19
391 24 409 6 6 -6 20 -11 32 -11 11 0 33 -7 49 -15 16 -9 36 -13 44 -10 8 3
23 -6 34 -20 13 -16 29 -25 48 -25 20 0 35 -9 49 -29 11 -16 33 -31 48 -34 16
-3 53 -15 83 -26 79 -28 217 -46 565 -71 162 -12 562 -4 581 11 7 6 22 6 37 0
15 -6 64 -7 111 -4 75 5 86 8 86 24 0 11 7 19 15 19 8 0 15 -7 15 -15 0 -29
39 -37 165 -33 76 3 129 9 138 17 9 7 29 9 55 5 25 -4 42 -2 46 5 4 6 19 11
34 11 20 0 23 -3 14 -12 -7 -7 -12 -15 -12 -19 0 -3 82 -5 183 -4 100 1 190
-2 199 -6 9 -5 24 -6 32 -3 20 8 21 34 1 34 -8 0 -15 5 -15 10 0 6 7 10 15 10
8 0 15 -4 15 -10 0 -5 10 -10 23 -10 12 -1 33 -7 47 -15 36 -20 53 -19 45 4
-9 29 12 35 40 13 55 -43 166 -51 208 -14 16 14 19 14 31 -3 22 -30 163 -37
179 -10 10 19 55 19 94 0 16 -8 68 -17 115 -20 80 -5 86 -4 91 15 6 23 27 27
27 5 0 -8 9 -19 19 -25 23 -12 156 -12 226 0 41 7 57 5 89 -10 28 -14 43 -16
52 -9 7 5 23 7 37 4 16 -4 28 -2 34 7 6 10 31 13 106 10 87 -4 97 -6 97 -23 0
-20 15 -26 25 -10 11 19 66 24 83 8 23 -21 56 -25 75 -9 13 11 17 10 27 -8 7
-14 17 -19 27 -16 9 4 24 -1 33 -9 12 -11 20 -13 25 -6 10 17 40 13 60 -9 17
-19 17 -20 -10 -30 -16 -6 -34 -9 -41 -6 -8 3 -11 0 -8 -9 9 -22 22 -23 274
-30 129 -4 282 -11 340 -16 58 -5 200 -16 315 -24 116 -7 217 -16 225 -19 8
-3 168 -11 355 -16 442 -14 682 -26 775 -39 41 -6 102 -10 135 -11 59 0 191
-17 355 -46 63 -12 98 -13 135 -6 l50 10 -45 1 c-25 1 -63 10 -86 20 -23 10
-65 22 -95 26 -29 4 -59 14 -65 23 -7 10 -16 12 -25 7 -17 -11 -90 -6 -106 7
-7 6 -33 7 -60 4 -38 -5 -57 -2 -88 14 -30 15 -50 19 -81 14 -23 -3 -101 1
-175 10 -74 9 -210 18 -304 22 -219 7 -264 10 -355 19 -41 5 -83 8 -92 6 -9
-1 -43 5 -75 13 -32 8 -89 18 -128 22 -67 6 -99 9 -260 18 -113 6 -285 35
-311 52 -22 15 -26 15 -49 0 -31 -20 -55 -21 -55 -1 0 18 11 17 -145 20 -136
3 -237 11 -268 21 -10 3 -24 0 -32 -6 -18 -15 -58 -3 -51 16 7 19 -12 28 -29
14 -8 -6 -22 -10 -32 -8 -10 1 -23 -1 -29 -4 -6 -4 -31 2 -55 14 -36 18 -59
21 -131 19 -50 -1 -96 2 -108 9 -16 9 -33 8 -70 -3 -42 -13 -52 -12 -79 1 -21
9 -35 11 -43 5 -19 -14 -336 -9 -372 6 -16 6 -37 9 -45 6 -9 -4 -53 -8 -99
-10 -69 -3 -84 -1 -89 12 -12 32 23 41 150 42 67 0 126 -4 132 -9 18 -15 191
-24 199 -11 9 15 111 14 176 -1 35 -8 57 -9 68 -2 16 10 94 10 372 -1 63 -2
214 -6 335 -8 170 -3 226 -7 247 -19 22 -12 40 -13 90 -6 35 5 86 6 113 3 28
-4 93 -6 145 -5 52 1 106 2 120 1 14 0 84 -2 155 -4 72 -2 132 -5 135 -7 3 -1
104 -4 225 -6 121 -2 312 -6 425 -10 113 -3 297 -7 410 -8 197 -3 283 -13 318
-40 19 -14 94 -17 109 -4 17 14 103 1 125 -19 9 -8 22 -12 27 -8 21 12 116 14
123 2 4 -7 35 -12 74 -13 58 -1 69 -4 84 -24 14 -19 21 -21 32 -13 10 9 27 7
70 -8 55 -18 118 -17 118 2 0 13 34 11 47 -2 16 -16 53 -1 53 21 0 12 -15 26
-42 39 -78 37 -133 52 -298 81 -36 6 -99 18 -140 26 -42 7 -105 14 -140 14
-36 0 -83 5 -105 11 -22 5 -150 14 -285 19 -135 5 -326 14 -425 19 -99 6 -252
11 -341 11 -89 0 -218 5 -287 10 -69 6 -289 15 -489 20 -200 5 -466 14 -593
19 -341 16 -796 31 -1185 41 -190 5 -358 11 -375 15 -16 3 -178 10 -360 16
-181 6 -373 14 -425 19 -52 4 -171 9 -265 9 -93 1 -210 6 -258 11 -49 6 -217
15 -375 21 -158 5 -327 14 -377 18 -94 10 -978 15 -987 6z m792 -50 c47 -3
135 -10 195 -16 61 -6 137 -13 170 -15 33 -2 71 -9 85 -14 14 -5 53 -11 87
-13 34 -2 66 -6 69 -10 4 -4 27 -7 50 -7 44 0 74 -20 32 -20 -65 -2 -117 -9
-136 -19 -11 -6 -39 -11 -61 -11 -22 0 -60 -4 -83 -9 -190 -42 -397 -55 -593
-37 -27 2 -120 6 -205 9 -219 6 -251 11 -407 69 -129 48 -109 73 76 94 113 12
512 12 721 -1z m760 -110 c14 -17 46 -20 55 -5 3 6 19 10 35 10 16 0 32 -4 35
-10 3 -5 26 -10 50 -10 24 0 47 5 50 10 10 17 76 11 109 -9 37 -22 102 -35
110 -22 3 5 -1 12 -10 15 -32 12 -1 24 64 24 45 0 72 -5 84 -15 13 -12 29 -14
62 -9 28 5 53 3 67 -4 16 -9 27 -9 45 0 19 11 30 9 68 -9 25 -11 46 -25 46
-31 0 -15 -47 -23 -103 -16 -58 6 -157 -3 -157 -15 0 -4 16 -9 35 -11 45 -4
46 -22 1 -26 -33 -3 -42 2 -69 40 -10 15 -31 18 -127 20 -88 2 -118 6 -126 17
-10 13 -16 13 -45 0 -19 -8 -70 -15 -114 -16 -231 -7 -313 -11 -342 -17 -29
-7 -33 -5 -33 13 0 19 11 26 34 22 5 -1 33 3 63 9 38 8 58 19 69 36 19 28 27
30 44 9z m1015 -55 c4 -6 -7 -10 -25 -10 -18 0 -29 4 -25 10 3 6 15 10 25 10
10 0 22 -4 25 -10z m303 -4 c6 -4 40 -9 74 -12 58 -4 89 -16 76 -29 -6 -6
-134 -10 -196 -6 -34 2 -89 40 -73 51 13 7 105 5 119 -4z m4492 -4350 c7 -21
-24 -86 -41 -86 -10 0 -12 90 -3 114 5 13 9 14 21 4 9 -7 19 -21 23 -32z m-60
-140 c0 -7 11 -27 25 -46 28 -37 32 -86 12 -114 -27 -37 -42 -13 -53 83 -5 50
-8 94 -6 96 8 7 22 -5 22 -19z"/>
<path d="M9510 10032 c0 -5 -10 -14 -22 -20 -22 -11 -22 -12 7 -9 19 1 31 8
33 20 2 9 -1 17 -7 17 -6 0 -11 -4 -11 -8z"/>
<path d="M11691 10026 c-6 -8 -32 -17 -56 -20 -25 -4 -47 -11 -50 -15 -2 -5
-22 -12 -42 -16 -53 -9 -135 -36 -151 -49 -10 -7 -12 -22 -8 -47 3 -21 3 -44
0 -53 -8 -20 -87 -66 -113 -66 -11 0 -22 -4 -25 -9 -3 -5 -17 -12 -32 -15 -31
-8 -71 -43 -60 -53 4 -4 16 -2 26 5 11 7 28 12 39 12 11 0 26 6 34 14 14 15
100 56 115 56 18 0 22 -44 5 -62 -19 -21 -131 -58 -177 -58 -41 0 -44 -3 -38
-39 4 -28 6 -29 26 -17 11 8 42 19 68 25 26 6 64 20 84 32 26 14 40 17 47 10
14 -14 54 -14 62 0 4 6 -1 16 -11 24 -17 12 -17 18 -6 59 8 31 9 53 2 72 -11
27 -6 44 12 44 6 0 8 -11 6 -25 -3 -16 -1 -25 7 -25 17 0 24 21 18 53 -4 22
-1 28 21 37 14 5 26 14 26 20 0 10 16 8 58 -7 6 -3 12 2 12 10 0 9 16 24 35
33 33 15 37 15 54 0 19 -17 18 -48 -1 -72 -11 -15 0 -44 18 -44 7 0 17 7 22
15 10 19 42 10 42 -11 0 -8 5 -14 10 -14 6 0 10 -6 10 -13 0 -7 6 -19 13 -25
6 -7 17 -31 22 -54 6 -23 16 -43 22 -45 14 -5 26 27 14 41 -5 6 -12 29 -16 51
-4 22 -11 45 -15 50 -4 6 -17 43 -29 84 -20 67 -56 121 -79 121 -5 0 -15 -6
-21 -14z m50 -129 c-13 -13 -26 -3 -16 12 3 6 11 8 17 5 6 -4 6 -10 -1 -17z"/>
<path d="M11514 9868 c3 -13 6 -37 6 -55 0 -26 3 -31 16 -26 11 4 14 14 10 34
-3 16 -1 31 4 34 20 13 10 35 -16 35 -22 0 -25 -3 -20 -22z"/>
<path d="M11715 9788 c-6 -26 -3 -35 15 -50 17 -14 20 -22 12 -30 -8 -8 -15
-8 -25 0 -11 9 -18 8 -32 -8 -20 -22 -65 -27 -65 -8 0 6 -2 9 -5 6 -3 -3 -3
-13 1 -22 7 -18 59 -22 69 -5 4 6 21 9 39 8 17 -2 37 0 44 5 17 10 15 37 -4
50 -9 7 -16 28 -17 49 -1 46 -23 49 -32 5z"/>
<path d="M12657 9813 c-4 -3 -7 -15 -7 -25 0 -23 -48 -25 -56 -3 -10 24 -34
18 -34 -9 0 -35 -18 -42 -45 -16 -28 27 -40 21 -49 -22 -8 -40 8 -51 47 -31
16 8 38 12 48 10 11 -3 26 1 33 9 8 8 25 14 39 14 24 0 57 27 57 47 0 14 -25
34 -33 26z"/>
<path d="M11660 9765 c-10 -13 -9 -15 9 -15 11 0 21 4 21 9 0 18 -18 21 -30 6z"/>
<path d="M11450 9760 c0 -5 9 -10 21 -10 11 0 17 5 14 10 -3 6 -13 10 -21 10
-8 0 -14 -4 -14 -10z"/>
<path d="M11562 9729 c-24 -21 -30 -44 -9 -35 6 3 20 9 30 12 18 7 23 29 9 38
-5 3 -19 -4 -30 -15z"/>
<path d="M12380 9725 c-10 -26 -29 -26 -61 2 -19 16 -29 8 -29 -23 0 -28 -18
-41 -26 -19 -4 8 -15 20 -26 26 -26 14 -38 -2 -38 -48 0 -27 4 -33 21 -33 11
0 27 7 36 15 9 9 23 13 34 10 10 -4 32 2 48 11 25 15 32 15 45 5 11 -9 16 -10
16 -2 0 6 11 16 25 21 30 11 33 35 6 50 -30 15 -41 12 -51 -15z"/>
<path d="M11486 9713 c-12 -12 -6 -33 9 -33 8 0 15 6 15 14 0 17 -14 28 -24
19z"/>
<path d="M12114 9666 c-8 -32 -18 -33 -38 -4 -13 18 -18 19 -31 8 -8 -7 -15
-20 -15 -29 0 -9 -5 -22 -11 -28 -19 -19 15 -22 51 -5 25 12 35 13 38 4 6 -18
18 -15 49 14 22 20 25 29 17 42 -18 29 -52 27 -60 -2z"/>
<path d="M11725 9649 c-9 -14 12 -29 43 -29 17 0 23 5 20 18 -4 20 -52 29 -63
11z"/>
<path d="M11535 9639 c-11 -16 1 -21 34 -14 44 9 48 25 7 25 -19 0 -38 -5 -41
-11z"/>
<path d="M11940 9620 c0 -25 4 -30 24 -30 30 0 40 13 31 40 -4 13 -15 20 -31
20 -20 0 -24 -5 -24 -30z"/>
<path d="M2665 9611 c31 -13 619 -25 752 -15 113 8 116 8 58 15 -86 10 -834 9
-810 0z"/>
<path d="M11647 9613 c-16 -15 -5 -24 25 -21 41 4 50 28 11 28 -17 0 -33 -3
-36 -7z"/>
<path d="M11785 9590 c-4 -7 -17 -9 -31 -6 -14 4 -26 1 -31 -8 -4 -8 -23 -16
-42 -18 -19 -2 -36 -9 -39 -15 -6 -19 67 -17 74 2 4 10 20 15 44 15 40 0 59
15 42 32 -6 6 -12 6 -17 -2z"/>
<path d="M3670 9581 c10 -7 194 -11 545 -11 292 0 525 4 518 8 -19 12 -1080
15 -1063 3z"/>
<path d="M11558 9583 c-26 -7 -22 -23 6 -23 33 0 57 10 50 21 -5 9 -26 10 -56
2z"/>
<path d="M1835 9569 c58 -11 283 -11 290 1 4 7 -52 10 -162 9 -117 -1 -156 -4
-128 -10z"/>
<path d="M11480 9550 c-12 -8 -11 -10 8 -10 12 0 22 5 22 10 0 13 -11 13 -30
0z"/>
<path d="M2445 9540 c3 -5 15 -10 26 -10 11 0 17 5 14 10 -3 6 -15 10 -26 10
-11 0 -17 -4 -14 -10z"/>
<path d="M2545 9540 c-22 -4 48 -7 160 -7 130 0 184 2 155 8 -55 9 -260 9
-315 -1z"/>
<path d="M11580 9520 c-11 -7 -7 -10 18 -10 17 0 32 5 32 10 0 13 -30 13 -50
0z"/>
<path d="M11750 9521 c0 -11 38 -21 56 -14 8 3 11 9 8 14 -7 12 -64 12 -64 0z"/>
<path d="M3560 9510 c-16 -5 9 -8 70 -8 64 0 85 3 65 8 -39 10 -104 10 -135 0z"/>
<path d="M3398 9503 c18 -2 45 -2 60 0 15 2 0 4 -33 4 -33 0 -45 -2 -27 -4z"/>
<path d="M11655 9490 c-7 -11 5 -17 53 -23 26 -3 32 0 32 15 0 14 -8 18 -39
18 -22 0 -43 -5 -46 -10z"/>
<path d="M4743 9483 c20 -2 54 -2 75 0 20 2 3 4 -38 4 -41 0 -58 -2 -37 -4z"/>
<path d="M4896 9481 c11 -11 607 -21 679 -12 l50 7 -49 7 c-72 10 -692 9 -680
-2z"/>
<path d="M11575 9460 c-8 -13 15 -24 27 -12 6 6 4 11 -6 15 -8 3 -18 2 -21 -3z"/>
<path d="M11766 9461 c-18 -7 -18 -8 -2 -14 29 -11 46 -8 46 8 0 16 -14 18
-44 6z"/>
<path d="M5724 9451 c3 -4 110 -10 238 -13 248 -5 368 -1 333 13 -27 10 -577
11 -571 0z"/>
<path d="M6370 9428 c0 -13 61 -17 320 -22 201 -4 251 -3 235 7 -12 7 -68 13
-135 14 -311 7 -420 8 -420 1z"/>
<path d="M11680 9430 c-12 -8 -12 -10 2 -15 19 -7 38 1 38 16 0 12 -21 11 -40
-1z"/>
<path d="M7040 9401 c-34 -10 53 -18 275 -26 94 -3 186 -10 206 -15 21 -6 79
-14 130 -19 52 -5 150 -19 219 -31 69 -12 140 -24 158 -27 18 -3 35 -9 38 -14
3 -5 18 -9 33 -9 15 0 31 -4 37 -10 5 -5 49 -12 99 -15 64 -5 92 -11 101 -23
10 -13 16 -14 41 -3 25 10 41 9 91 -3 33 -9 73 -16 90 -16 16 0 49 -9 73 -20
24 -11 56 -20 72 -20 15 0 35 -4 45 -9 88 -43 110 -56 106 -63 -3 -4 -1 -8 5
-8 6 0 27 -12 48 -26 29 -19 39 -34 43 -61 3 -23 14 -41 29 -51 l23 -16 -6 54
c-15 124 -14 121 -86 185 -38 33 -83 63 -102 68 -18 5 -37 13 -42 18 -6 5 -30
9 -55 9 -26 1 -66 5 -91 11 -58 12 -193 35 -295 49 -44 6 -107 15 -140 21 -33
5 -103 14 -155 18 -52 5 -102 12 -110 15 -8 3 -73 11 -145 16 -71 6 -168 15
-215 20 -103 10 -485 11 -520 1z"/>
<path d="M11595 9400 c-8 -12 20 -24 35 -15 6 3 8 11 5 16 -8 12 -32 12 -40
-1z"/>
<path d="M11755 9400 c-8 -13 9 -20 24 -11 10 6 9 10 -3 14 -8 3 -18 2 -21 -3z"/>
<path d="M11685 9371 c-3 -5 0 -13 5 -16 15 -9 60 3 60 15 0 13 -57 13 -65 1z"/>
<path d="M8595 9351 c-3 -6 11 -13 32 -17 21 -3 57 -12 81 -20 23 -8 58 -14
76 -14 19 0 39 -7 46 -15 7 -8 20 -15 30 -15 10 0 20 -7 24 -15 3 -8 14 -15
24 -15 10 0 32 -14 49 -30 41 -40 49 -26 14 25 -17 25 -36 41 -51 43 -14 2
-29 10 -33 18 -4 8 -16 14 -26 14 -10 0 -21 3 -25 7 -26 26 -228 54 -241 34z"/>
<path d="M11585 9340 c-3 -5 0 -13 9 -16 21 -8 61 -1 61 11 0 14 -62 19 -70 5z"/>
<path d="M11790 9341 c-25 -8 -25 -8 7 -15 34 -8 57 -1 48 15 -7 10 -19 10
-55 0z"/>
<path d="M9630 9286 c0 -18 -5 -47 -11 -64 -9 -25 -8 -36 5 -54 11 -16 14 -36
11 -73 -29 -279 -35 -367 -35 -507 0 -90 -6 -246 -14 -348 -8 -102 -15 -251
-16 -332 -1 -142 0 -148 19 -148 23 0 36 16 21 25 -13 8 -13 112 0 120 6 4 5
13 -2 24 -6 11 -8 26 -3 37 12 30 14 106 2 125 -8 12 -8 21 0 31 11 14 24 182
29 398 2 69 5 159 7 200 1 42 -3 89 -10 107 -10 27 -9 34 2 40 9 6 14 37 16
113 4 188 -1 340 -11 340 -6 0 -10 -15 -10 -34z"/>
<path d="M11704 9305 c-18 -15 -18 -15 10 -13 16 2 31 9 34 16 5 17 -20 15
-44 -3z"/>
<path d="M11616 9274 c-18 -18 -21 -34 -6 -34 6 0 10 4 10 9 0 5 11 12 25 15
14 4 25 11 25 16 0 16 -37 12 -54 -6z"/>
<path d="M11835 9279 c-10 -15 1 -23 20 -15 9 3 13 10 10 16 -8 13 -22 13 -30
-1z"/>
<path d="M9456 9255 c-20 -30 -21 -69 -1 -85 10 -8 12 -18 6 -29 -5 -9 -4 -49
1 -90 6 -51 5 -77 -2 -86 -7 -8 -8 -28 -5 -48 5 -24 1 -45 -11 -68 -14 -27
-17 -68 -20 -229 -4 -225 -8 -303 -16 -316 -3 -5 -2 -45 2 -89 5 -51 4 -87 -2
-99 -6 -11 -12 -94 -15 -185 -2 -91 -8 -190 -13 -220 -6 -29 -8 -57 -5 -61 2
-4 -2 -81 -9 -171 -7 -90 -13 -173 -14 -184 0 -11 -7 -92 -14 -180 -20 -256
-12 -348 37 -418 8 -12 15 -33 15 -46 0 -17 3 -22 10 -15 12 12 13 32 11 281
-1 100 3 213 9 250 10 64 16 134 39 438 6 72 15 245 21 385 37 876 47 1038 64
1085 24 63 20 88 -14 107 -26 15 -30 23 -30 58 0 47 -19 54 -44 15z"/>
<path d="M9090 9221 c0 -23 5 -41 10 -41 6 0 10 15 10 34 0 19 -4 38 -10 41
-6 4 -10 -10 -10 -34z"/>
<path d="M11740 9250 c-8 -5 -12 -12 -8 -15 9 -9 48 4 48 16 0 12 -21 11 -40
-1z"/>
<path d="M11653 9223 c-7 -2 -13 -9 -13 -15 0 -14 43 -6 48 10 4 12 -12 15
-35 5z"/>
<path d="M11773 9196 c-29 -13 -30 -26 -3 -26 11 0 23 7 27 15 7 21 2 23 -24
11z"/>
<path d="M9065 9159 c-10 -15 3 -25 16 -12 7 7 7 13 1 17 -6 3 -14 1 -17 -5z"/>
<path d="M11821 9152 c-1 -7 -11 -16 -23 -21 l-23 -8 24 -8 c29 -9 41 4 31 30
-5 11 -9 14 -9 7z"/>
<path d="M11687 9103 c-15 -14 -6 -23 24 -23 27 0 30 2 19 15 -13 16 -32 19
-43 8z"/>
<path d="M9065 9080 c-3 -11 -2 -28 4 -37 8 -15 10 -11 11 20 0 41 -5 47 -15
17z"/>
<path d="M8950 8811 c0 -63 6 -91 21 -91 5 0 9 34 9 75 0 60 -3 75 -15 75 -12
0 -15 -13 -15 -59z"/>
<path d="M9025 8733 c-3 -26 -11 -57 -17 -68 -6 -11 -14 -67 -18 -126 -4 -58
-11 -113 -16 -120 -5 -8 -12 -122 -15 -254 -4 -132 -12 -357 -18 -500 -8 -188
-8 -296 0 -390 19 -228 28 -340 28 -358 1 -17 2 -17 31 0 17 9 30 20 30 24 0
3 17 14 38 23 32 15 48 16 93 8 68 -13 86 -1 46 33 -26 23 -84 45 -119 45 -13
0 -18 8 -18 32 0 17 -6 39 -14 47 -18 20 -40 219 -27 235 11 13 10 74 -1 92
-4 6 -2 43 4 84 8 56 8 85 -1 121 -8 32 -9 54 -3 65 5 10 7 35 4 56 -3 23 1
49 9 64 11 21 11 27 -1 34 -11 7 -12 16 -3 43 7 24 7 52 1 89 -6 29 -7 76 -3
103 13 90 15 127 17 394 2 191 -1 266 -9 268 -7 3 -14 -15 -18 -44z"/>
<path d="M9564 7715 c-7 -18 30 -64 43 -52 9 10 -9 59 -24 65 -7 2 -16 -4 -19
-13z"/>
<path d="M9507 7462 c-3 -15 -11 -157 -18 -315 -10 -225 -10 -305 -1 -370 7
-46 12 -114 12 -153 0 -38 5 -85 10 -104 6 -19 13 -75 17 -125 3 -49 10 -96
16 -103 7 -9 4 -18 -8 -32 -12 -14 -15 -23 -8 -32 6 -7 13 -31 17 -53 4 -22 9
-52 12 -67 3 -16 1 -28 -4 -28 -5 0 -12 15 -15 33 -13 75 -36 160 -47 171 -19
19 -40 -22 -36 -68 9 -95 19 -132 45 -159 31 -34 33 -74 13 -267 -10 -89 -15
-359 -17 -940 -4 -703 -9 -995 -29 -1700 -3 -102 -8 -134 -25 -173 -13 -27
-23 -73 -25 -110 -2 -34 -8 -74 -14 -89 -6 -14 -11 -58 -10 -96 0 -49 -4 -77
-16 -93 -17 -25 -21 -61 -8 -73 6 -7 15 -78 36 -286 12 -109 16 -130 30 -130
16 0 29 69 16 85 -5 6 -5 77 0 175 8 150 15 205 53 427 8 46 9 78 3 92 -6 14
-5 30 4 49 16 33 27 409 38 1257 l7 580 25 0 c23 1 25 4 23 48 -1 26 -10 61
-21 79 -28 47 -39 104 -52 259 -12 147 -3 248 25 279 10 11 15 38 15 86 0 38
3 106 7 152 6 81 6 82 34 82 27 0 27 1 31 68 2 37 0 83 -5 102 -5 19 -13 73
-18 120 -4 47 -13 103 -18 125 -5 22 -12 78 -15 125 -5 81 -10 117 -37 240 -8
36 -15 209 -18 502 -3 245 -9 449 -12 453 -4 3 -9 -7 -12 -23z m82 -1535 c0
-34 -3 -80 -7 -102 -13 -69 -23 -12 -16 86 8 100 24 111 23 16z"/>
<path d="M11897 7168 c-7 -27 -3 -32 18 -24 18 6 17 37 -1 43 -6 2 -14 -6 -17
-19z"/>
<path d="M11936 7093 c3 -16 13 -44 22 -63 12 -27 17 -31 20 -17 2 10 -3 26
-12 36 -9 10 -16 30 -16 44 0 15 -5 27 -10 27 -6 0 -8 -11 -4 -27z"/>
<path d="M12020 6893 c0 -10 5 -25 10 -33 8 -12 10 -9 10 12 0 15 -4 30 -10
33 -5 3 -10 -2 -10 -12z"/>
<path d="M8964 6614 c-4 -14 -2 -35 4 -47 6 -12 16 -69 22 -127 5 -58 14 -132
20 -165 5 -33 12 -251 15 -485 4 -234 10 -456 15 -495 15 -119 22 -1284 12
-1820 -8 -401 -14 -523 -26 -569 -12 -48 -14 -101 -10 -265 5 -250 8 -271 35
-271 22 0 39 35 39 80 0 25 4 28 41 32 23 2 53 -2 67 -9 14 -7 27 -11 30 -8 9
9 -32 34 -56 35 -28 0 -36 18 -22 55 9 24 7 31 -10 50 -11 12 -20 30 -20 42 0
11 -19 37 -41 58 -39 36 -41 40 -35 82 3 24 13 54 21 66 8 12 15 28 15 36 0 8
11 37 24 65 l24 51 7 1015 c7 1050 10 1205 21 1279 8 48 -5 65 -42 56 -30 -7
-68 36 -60 68 6 25 30 37 77 37 17 0 28 6 31 18 3 9 5 132 7 272 2 287 -2 313
-77 515 -8 22 -18 49 -23 60 -10 24 -27 99 -41 180 -9 54 -41 135 -53 135 -3
0 -8 -12 -11 -26z"/>
<path d="M9416 6553 c-8 -8 -8 -51 0 -80 11 -40 24 -25 24 26 0 47 -9 68 -24
54z"/>
<path d="M9442 6366 c1 -10 8 -17 13 -17 15 1 12 24 -3 29 -9 3 -13 -2 -10
-12z"/>
<path d="M9972 5898 c-12 -19 -20 -47 -19 -63 1 -22 -4 -32 -23 -41 -48 -24
-105 -43 -147 -49 l-43 -7 0 81 c0 78 -6 96 -26 83 -15 -10 -34 -69 -34 -106
-1 -17 -7 -42 -15 -56 -9 -16 -14 -56 -15 -113 0 -48 -6 -113 -14 -145 -46
-179 -46 -181 -30 -339 9 -81 25 -179 36 -218 16 -56 19 -86 14 -160 -3 -49
-8 -218 -11 -375 -3 -157 -8 -352 -11 -435 -14 -350 -15 -335 14 -362 24 -22
24 -25 13 -65 -8 -24 -15 -130 -18 -255 -4 -118 -10 -216 -15 -219 -4 -3 -8
-14 -8 -25 0 -10 -5 -28 -12 -39 -14 -22 -3 -39 14 -22 21 21 26 13 25 -38 -1
-27 -5 -50 -10 -50 -14 0 -45 -84 -57 -155 -7 -38 -16 -110 -21 -160 -4 -49
-13 -145 -20 -211 -10 -108 -10 -125 5 -154 9 -18 16 -43 16 -55 0 -20 17 -35
39 -35 5 0 11 24 15 52 3 29 9 63 12 74 4 17 0 23 -21 28 -25 6 -26 9 -20 49
4 23 13 52 21 65 11 16 12 27 4 41 -12 23 -3 51 16 51 34 0 39 95 7 131 -12
15 -12 23 5 60 33 74 34 80 12 86 -25 7 -26 20 -2 25 13 3 17 14 18 53 1 28 4
149 7 270 3 121 9 276 13 345 5 69 8 132 6 140 -1 8 3 195 8 415 6 220 12 508
13 640 l2 240 25 -1 c14 -1 54 -13 89 -26 l65 -24 14 -70 c7 -38 16 -72 20
-76 6 -5 312 -13 359 -9 16 1 53 73 53 101 0 12 5 31 11 42 17 32 31 211 33
418 1 102 7 219 13 260 14 91 2 289 -22 359 -18 54 -39 66 -108 60 -18 -2 -37
0 -43 4 -6 3 -61 9 -121 13 l-110 7 -21 -35z m193 -75 c9 -38 27 -27 19 12 -5
28 -3 35 10 35 8 0 20 -9 26 -20 13 -24 30 -26 30 -5 0 8 7 15 15 15 16 0 29
-40 27 -85 -6 -124 -21 -246 -31 -259 -7 -8 -13 -40 -13 -71 0 -40 -5 -58 -15
-62 -13 -5 -13 -7 1 -15 23 -13 20 -35 -6 -42 -22 -6 -22 -7 -5 -20 23 -18 22
-32 -5 -39 -17 -5 -19 -9 -10 -20 8 -9 11 -50 9 -115 -1 -56 2 -102 6 -102 5
0 6 -13 2 -30 -4 -17 -2 -30 3 -30 5 0 12 -26 15 -57 4 -32 10 -75 13 -95 6
-34 4 -38 -14 -38 -24 0 -32 17 -25 52 6 30 -13 47 -21 20 -4 -10 -2 -39 3
-65 l8 -47 -36 -2 c-20 0 -56 -2 -81 -3 -25 -1 -50 2 -57 7 -7 6 -17 7 -22 4
-17 -11 -51 17 -51 41 0 12 -8 27 -18 32 -11 6 -27 31 -37 57 -24 62 -17 198
12 220 17 13 17 14 -4 20 -20 6 -23 13 -23 60 0 29 -5 56 -11 59 -6 4 -10 -9
-10 -37 1 -92 -8 -258 -14 -268 -4 -6 -16 -8 -28 -4 -12 4 -48 8 -81 8 l-60 2
-12 54 c-17 72 -21 267 -7 281 12 12 89 8 161 -9 23 -5 44 -6 47 -3 4 8 18
145 19 200 1 19 7 36 14 38 8 3 12 32 12 97 0 97 21 183 46 193 8 3 14 16 14
28 0 28 17 42 33 26 15 -15 27 -14 27 4 0 19 2 19 43 -5 l34 -20 -4 24 c-5 24
-4 24 20 13 15 -7 29 -22 32 -34z m-419 -151 c5 -27 9 -29 57 -30 68 -1 91
-27 84 -90 -6 -52 -24 -74 -85 -100 -26 -11 -60 -34 -76 -51 -35 -37 -51 -39
-60 -8 -8 30 12 165 31 204 9 18 13 42 10 53 -3 12 -3 28 0 36 9 24 33 15 39
-14z m608 -14 c3 -13 7 -61 10 -108 4 -68 1 -88 -11 -102 -9 -10 -20 -37 -24
-60 -22 -108 -23 -101 15 -140 41 -42 40 -74 0 -64 -21 6 -24 3 -24 -19 0 -16
6 -25 15 -25 19 0 19 -32 1 -180 -15 -119 -29 -170 -45 -170 -22 0 -16 664 7
706 6 12 14 52 17 90 4 38 8 75 11 82 6 20 23 14 28 -10z"/>
<path d="M10222 5591 c2 -7 7 -12 11 -12 12 1 9 15 -3 20 -7 2 -11 -2 -8 -8z"/>
<path d="M10045 5560 c-3 -5 3 -10 15 -10 12 0 18 5 15 10 -3 6 -10 10 -15 10
-5 0 -12 -4 -15 -10z"/>
<path d="M10150 5560 c0 -6 8 -14 18 -17 9 -4 22 -13 28 -21 8 -11 13 -12 18
-3 4 6 0 14 -8 17 -9 3 -16 12 -16 20 0 8 -9 14 -20 14 -11 0 -20 -5 -20 -10z"/>
<path d="M10095 5530 c-3 -6 1 -13 10 -16 19 -8 30 0 20 15 -8 14 -22 14 -30
1z"/>
<path d="M10020 5501 c0 -9 23 -21 41 -21 4 0 6 7 3 15 -7 16 -44 21 -44 6z"/>
<path d="M10161 5483 c27 -35 49 -43 49 -18 0 8 -7 15 -15 15 -8 0 -15 5 -15
10 0 6 -7 10 -16 10 -14 0 -15 -2 -3 -17z"/>
<path d="M10080 5470 c-12 -8 -11 -10 7 -10 12 0 27 -9 33 -20 6 -11 17 -20
25 -20 21 0 19 19 -2 27 -10 4 -22 12 -26 20 -9 15 -17 16 -37 3z"/>
<path d="M10015 5441 c-3 -5 3 -12 14 -16 11 -3 22 -12 25 -20 3 -8 14 -15 25
-15 10 0 21 -7 25 -15 6 -16 46 -21 46 -5 0 5 -11 12 -24 16 -14 3 -27 12 -30
20 -3 8 -12 14 -20 14 -7 0 -16 7 -20 15 -6 17 -32 20 -41 6z"/>
<path d="M9956 5411 c-3 -5 1 -12 10 -15 20 -8 29 -1 19 13 -8 13 -22 14 -29
2z"/>
<path d="M10170 5406 c0 -10 9 -16 21 -16 24 0 21 23 -4 28 -10 2 -17 -3 -17
-12z"/>
<path d="M10000 5376 c0 -10 9 -16 21 -16 24 0 21 23 -4 28 -10 2 -17 -3 -17
-12z"/>
<path d="M10050 5345 c0 -8 9 -15 20 -15 11 0 20 7 20 15 0 8 -9 15 -20 15
-11 0 -20 -7 -20 -15z"/>
<path d="M10106 5323 c-12 -12 -5 -23 14 -23 11 0 20 4 20 9 0 11 -26 22 -34
14z"/>
<path d="M10055 5280 c3 -5 13 -10 21 -10 8 0 14 5 14 10 0 6 -9 10 -21 10
-11 0 -17 -4 -14 -10z"/>
<path d="M10158 5278 c9 -9 15 -9 24 0 9 9 7 12 -12 12 -19 0 -21 -3 -12 -12z"/>
<path d="M9940 5200 c0 -5 7 -10 15 -10 8 0 15 5 15 10 0 6 -7 10 -15 10 -8 0
-15 -4 -15 -10z"/>
<path d="M10090 5170 c0 -5 7 -10 15 -10 8 0 15 5 15 10 0 6 -7 10 -15 10 -8
0 -15 -4 -15 -10z"/>
<path d="M9930 5134 c0 -10 7 -14 22 -12 32 5 35 28 4 28 -17 0 -26 -5 -26
-16z"/>
<path d="M10045 5141 c-6 -11 9 -23 19 -14 9 9 7 23 -3 23 -6 0 -12 -4 -16 -9z"/>
<path d="M10002 5111 c-11 -7 -10 -10 3 -15 23 -9 25 -8 25 9 0 17 -9 19 -28
6z"/>
<path d="M10100 5105 c0 -9 5 -15 11 -13 6 2 11 8 11 13 0 5 -5 11 -11 13 -6
2 -11 -4 -11 -13z"/>
<path d="M9945 5080 c-3 -6 1 -13 10 -16 19 -8 30 0 20 15 -8 14 -22 14 -30 1z"/>
<path d="M10157 5083 c-12 -11 -8 -23 8 -23 8 0 15 7 15 15 0 16 -12 20 -23 8z"/>
<path d="M10155 5019 c-10 -15 1 -23 20 -15 9 3 13 10 10 16 -8 13 -22 13 -30
-1z"/>
<path d="M10072 4973 c-21 -15 -21 -16 -5 -29 24 -18 33 -17 33 1 0 9 7 18 15
21 8 4 15 10 15 15 0 14 -33 10 -58 -8z"/>
<path d="M10163 4963 c-20 -7 -15 -23 7 -23 11 0 20 4 20 9 0 13 -12 19 -27
14z"/>
<path d="M10137 4910 c3 -11 12 -20 19 -20 17 0 18 12 2 28 -18 18 -27 15 -21
-8z"/>
<path d="M10045 4900 c-3 -5 3 -10 14 -10 12 0 21 5 21 10 0 6 -6 10 -14 10
-8 0 -18 -4 -21 -10z"/>
<path d="M10095 4870 c-3 -6 1 -13 10 -16 19 -8 30 0 20 15 -8 14 -22 14 -30
1z"/>
<path d="M9985 4780 c-9 -15 -1 -23 21 -18 15 3 16 4 1 16 -11 9 -17 10 -22 2z"/>
<path d="M9272 5648 c-7 -7 -12 -20 -12 -29 0 -10 -4 -20 -9 -24 -5 -3 1 -17
14 -31 34 -37 75 -30 96 16 20 41 16 53 -17 69 -32 14 -57 14 -72 -1z"/>
<path d="M9240 3087 c-43 -19 -100 -68 -100 -85 0 -10 5 -24 10 -32 9 -13 12
-13 20 2 13 21 36 14 43 -13 8 -30 41 -22 127 30 8 5 23 12 33 15 14 4 17 12
11 28 -10 34 -14 35 -35 10 -20 -25 -39 -22 -39 7 0 10 -8 25 -18 34 -21 19
-19 19 -52 4z"/>
<path d="M9573 2083 c-7 -3 -13 -10 -13 -16 -1 -7 -9 -30 -20 -52 -11 -22 -19
-48 -20 -57 0 -10 -4 -18 -10 -18 -5 0 -10 -10 -11 -22 0 -13 -4 -32 -8 -43
-8 -19 -8 -19 -18 0 -7 13 -8 39 -2 74 6 37 5 59 -3 68 -13 16 -22 9 -25 -20
-3 -55 -24 -142 -38 -164 -9 -13 -29 -26 -46 -30 -17 -3 -34 -15 -42 -30 -9
-18 -31 -32 -82 -49 -89 -31 -155 -62 -155 -73 0 -4 -9 -18 -20 -31 -11 -13
-20 -36 -20 -52 0 -15 -4 -28 -9 -28 -5 0 -21 -25 -35 -55 -14 -30 -38 -80
-52 -111 -16 -33 -35 -59 -49 -64 -12 -5 -25 -19 -28 -31 -6 -22 -7 -22 -26
-5 -29 27 -45 16 -46 -33 -1 -28 -7 -48 -18 -56 -9 -7 -17 -19 -17 -26 0 -8
-9 -20 -20 -27 -11 -7 -20 -21 -20 -31 0 -10 -7 -24 -16 -32 -8 -7 -26 -33
-39 -58 -13 -25 -31 -54 -42 -63 -10 -9 -43 -41 -74 -71 -32 -30 -64 -57 -73
-60 -9 -4 -16 -11 -16 -17 0 -5 -6 -10 -14 -10 -8 0 -28 -16 -44 -36 -17 -20
-36 -34 -43 -32 -6 2 -26 -9 -43 -24 -17 -15 -41 -28 -53 -28 -13 0 -23 -4
-23 -9 0 -5 -16 -15 -35 -21 -19 -6 -35 -16 -35 -21 0 -5 -11 -9 -24 -9 -13 0
-35 -9 -49 -21 -15 -11 -44 -23 -64 -26 -21 -3 -47 -12 -58 -19 -11 -8 -29
-14 -42 -14 -12 0 -25 -4 -28 -10 -3 -5 -23 -10 -44 -10 -22 0 -44 -6 -51 -15
-8 -10 -30 -15 -62 -15 -27 0 -63 -7 -79 -16 -25 -12 -58 -15 -167 -12 -124 3
-142 6 -192 30 -113 54 -165 76 -173 71 -5 -3 7 -16 25 -29 18 -13 41 -30 52
-38 25 -20 132 -71 179 -86 28 -8 51 -9 85 -2 26 6 87 13 136 16 49 3 94 10
100 16 5 5 30 10 56 10 25 0 58 7 74 15 15 8 39 15 52 15 14 0 41 7 61 15 19
8 44 15 55 15 11 0 32 6 46 13 15 8 43 21 62 29 105 47 202 96 260 131 152 92
291 234 385 392 27 44 62 91 78 104 45 37 138 168 175 246 18 39 40 83 48 98
8 16 14 34 14 40 0 6 7 30 16 53 17 46 20 47 142 63 35 5 69 14 75 20 6 6 19
11 30 11 47 0 145 63 147 95 0 6 9 28 20 50 11 22 19 44 20 49 0 5 14 38 31
74 30 64 36 123 12 115z"/>
<path d="M8987 1854 c-4 -4 -7 -38 -7 -74 0 -76 12 -95 54 -84 29 7 33 24 14
57 -7 12 -18 40 -23 61 -10 39 -24 53 -38 40z"/>
<path d="M8906 1578 c-9 -34 -7 -76 3 -82 11 -7 31 46 31 80 0 31 -26 31 -34
2z"/>
<path d="M8854 1374 c-12 -17 -14 -28 -7 -35 7 -7 16 -1 27 22 19 38 19 39 6
39 -5 0 -17 -11 -26 -26z"/>
</g>
</svg>
